<?xml version="1.0" standalone="no"?>
<!DOCTYPE svg PUBLIC "-//W3C//DTD SVG 20010904//EN"
    "http://www.w3.org/TR/2001/REC-SVG-20010904/DTD/svg10.dtd">
<svg version="1.0" xmlns="http://www.w3.org/2000/svg"
     width="300.000000pt" height="91.000000pt" viewBox="0 0 300.000000 91.000000"
     preserveAspectRatio="xMidYMid meet">
    <metadata>
        Created by potrace 1.16, written by Peter Selinger 2001-2019
    </metadata>
    <g transform="translate(0.000000,91.000000) scale(0.100000,-0.100000)"
       fill="#000000" stroke="none">
        <path d="M403 837 c-115 -44 -186 -152 -186 -281 0 -45 7 -92 18 -124 10 -28
17 -53 14 -56 -2 -2 -46 -25 -96 -50 -84 -42 -93 -49 -93 -74 0 -43 60 -106
138 -144 60 -30 77 -33 172 -36 88 -3 116 0 170 18 84 28 149 70 204 131 70
78 90 129 94 235 4 91 -7 144 -43 214 -14 28 -14 29 13 42 19 9 27 21 27 38 0
21 -5 26 -33 28 -28 3 -33 7 -29 23 6 23 -19 51 -42 47 -9 -2 -22 -15 -29 -30
l-12 -26 -47 26 c-38 21 -63 26 -127 29 -48 1 -94 -2 -113 -10z"/>
        <path d="M990 660 c0 -18 7 -20 75 -20 l75 0 0 -190 0 -190 25 0 25 0 0 190 0
190 75 0 c68 0 75 2 75 20 0 19 -7 20 -175 20 -168 0 -175 -1 -175 -20z"/>
        <path d="M2490 620 c0 -43 -3 -50 -20 -50 -13 0 -20 -7 -20 -20 0 -13 7 -20
20 -20 19 0 20 -7 20 -118 0 -137 8 -152 76 -152 48 0 69 12 60 35 -4 12 -13
15 -30 11 -51 -13 -56 -3 -56 115 l0 109 35 0 c28 0 35 4 35 20 0 16 -7 20
-35 20 l-35 0 0 50 c0 47 -2 50 -25 50 -23 0 -25 -3 -25 -50z"/>
        <path d="M1313 538 c105 -251 120 -279 141 -276 15 2 28 20 46 65 15 35 29 65
32 68 2 3 17 -26 33 -65 23 -56 32 -70 49 -70 18 0 32 23 84 148 34 81 62 151
62 155 0 5 -10 7 -22 5 -17 -2 -32 -27 -74 -128 -47 -113 -53 -123 -62 -100
-5 14 -17 42 -26 63 -15 37 -15 41 9 99 30 74 30 70 4 66 -15 -2 -27 -17 -38
-47 l-17 -43 -18 46 c-13 33 -23 46 -37 46 -24 0 -24 -8 5 -73 l23 -54 -24
-59 c-14 -32 -26 -60 -28 -62 -1 -1 -26 54 -55 123 -46 111 -55 125 -76 125
-23 0 -24 -1 -11 -32z"/>
        <path d="M1852 550 c-46 -28 -72 -76 -72 -133 0 -53 16 -90 53 -125 33 -31 98
-45 144 -33 38 11 83 47 83 67 0 23 -30 23 -54 -1 -49 -49 -121 -40 -157 19
-33 55 -31 56 111 56 l131 0 -7 38 c-9 50 -40 99 -74 117 -42 22 -118 19 -158
-5z m122 -25 c30 -14 66 -60 66 -84 0 -7 -36 -11 -105 -11 -94 0 -105 2 -105
18 0 27 29 63 64 78 40 17 42 17 80 -1z"/>
        <path d="M2189 547 c-113 -75 -81 -259 51 -288 57 -13 112 3 145 43 27 31 27
32 6 40 -15 5 -27 1 -45 -17 -49 -49 -121 -40 -157 19 -33 55 -31 56 112 56
l131 0 -7 37 c-17 90 -66 133 -151 133 -36 0 -61 -6 -85 -23z m127 -23 c32
-15 64 -57 64 -84 0 -6 -38 -10 -105 -10 -67 0 -105 4 -105 10 0 27 34 73 63
85 41 18 42 18 83 -1z"/>
        <path d="M2640 564 c0 -5 58 -143 103 -245 l25 -56 -19 -42 c-11 -24 -28 -45
-39 -48 -11 -3 -20 -14 -20 -24 0 -26 51 -26 74 0 12 14 176 402 176 418 0 2
-10 3 -23 3 -20 0 -29 -15 -72 -125 -26 -70 -51 -122 -55 -118 -4 4 -29 61
-55 126 -43 101 -52 117 -72 117 -13 0 -23 -2 -23 -6z"/>
    </g>
</svg>
